<svg width="25" height="24" viewBox="0 0 25 24" fill="none" xmlns="http://www.w3.org/2000/svg">
<path opacity="0.4" d="M16.952 22H7.73592C5.05261 22 2.8692 19.8311 2.8692 17.1646V11.8354C2.8692 9.16894 5.05261 7 7.73592 7H16.952C19.6353 7 21.8187 9.16894 21.8187 11.8354V17.1646C21.8187 19.8311 19.6353 22 16.952 22Z" fill="#4B4B4B"/>
<path d="M16.0891 10C15.679 10 15.3462 9.67634 15.3462 9.27754V6.35689C15.3462 4.75111 14.003 3.44491 12.3528 3.44491C11.5931 3.44491 10.7958 3.7416 10.2282 4.28778C9.65963 4.83588 9.34464 5.56508 9.34167 6.34341V9.27754C9.34167 9.67634 9.00886 10 8.59878 10C8.18871 10 7.8559 9.67634 7.8559 9.27754V6.35689C7.86085 5.17303 8.33233 4.08067 9.1822 3.26285C10.0311 2.44311 11.1286 2.03179 12.3558 2C14.8222 2 16.832 3.95449 16.832 6.35689V9.27754C16.832 9.67634 16.4991 10 16.0891 10Z" fill="#4B4B4B"/>
</svg>
