<svg width="10" height="11" viewBox="0 0 10 11" fill="none" xmlns="http://www.w3.org/2000/svg">
<path d="M5.72083 1.9625L6.45416 3.42917C6.55416 3.63333 6.82083 3.82917 7.04583 3.86667L8.37499 4.0875C9.22499 4.22917 9.42499 4.84583 8.81249 5.45417L7.77916 6.4875C7.60416 6.6625 7.50833 7 7.56249 7.24167L7.85833 8.52083C8.09166 9.53333 7.55416 9.925 6.65833 9.39583L5.41249 8.65833C5.18749 8.525 4.81666 8.525 4.58749 8.65833L3.34166 9.39583C2.44999 9.925 1.90833 9.52917 2.14166 8.52083L2.43749 7.24167C2.49166 7 2.39583 6.6625 2.22083 6.4875L1.18749 5.45417C0.579159 4.84583 0.774993 4.22917 1.62499 4.0875L2.95416 3.86667C3.17499 3.82917 3.44166 3.63333 3.54166 3.42917L4.27499 1.9625C4.67499 1.16667 5.32499 1.16667 5.72083 1.9625Z" fill="#FBBE21"/>
</svg>
